%TF.GenerationSoftware,KiCad,Pcbnew,10.0.5*%
%TF.CreationDate,2026-09-08T10:43:25+05:30*%
%TF.ProjectId,main_project,6d61696e-5f70-4726-9f6a-6563742e6b69,rev?*%
%TF.SameCoordinates,Original*%
%TF.FileFunction,Copper,L2,Bot*%
%TF.FilePolarity,Positive*%
%FSLAX46Y46*%
G04 Gerber Fmt 4.6, Leading zero omitted, Abs format (unit mm)*
G04 Created by KiCad (PCBNEW 10.0.5) date 2026-09-08 10:43:25*
%MOMM*%
%LPD*%
G01*
G04 APERTURE LIST*
G04 Aperture macros list*
%AMRoundRect*
0 Rectangle with rounded corners*
0 $1 Rounding radius*
0 $2 $3 $4 $5 $6 $7 $8 $9 X,Y pos of 4 corners*
0 Add a 4 corners polygon primitive as box body*
4,1,4,$2,$3,$4,$5,$6,$7,$8,$9,$2,$3,0*
0 Add four circle primitives for the rounded corners*
1,1,$1+$1,$2,$3*
1,1,$1+$1,$4,$5*
1,1,$1+$1,$6,$7*
1,1,$1+$1,$8,$9*
0 Add four rect primitives between the rounded corners*
20,1,$1+$1,$2,$3,$4,$5,0*
20,1,$1+$1,$4,$5,$6,$7,0*
20,1,$1+$1,$6,$7,$8,$9,0*
20,1,$1+$1,$8,$9,$2,$3,0*%
G04 Aperture macros list end*
%TA.AperFunction,SMDPad,CuDef*%
%ADD10RoundRect,0.250000X-1.025000X-1.000000X1.025000X-1.000000X1.025000X1.000000X-1.025000X1.000000X0*%
%TD*%
%TA.AperFunction,ComponentPad*%
%ADD11RoundRect,0.250001X1.149999X-1.149999X1.149999X1.149999X-1.149999X1.149999X-1.149999X-1.149999X0*%
%TD*%
%TA.AperFunction,ComponentPad*%
%ADD12C,2.800000*%
%TD*%
%TA.AperFunction,ComponentPad*%
%ADD13R,1.700000X1.700000*%
%TD*%
%TA.AperFunction,ComponentPad*%
%ADD14C,1.700000*%
%TD*%
%TA.AperFunction,ComponentPad*%
%ADD15C,1.508000*%
%TD*%
%TA.AperFunction,ComponentPad*%
%ADD16R,1.508000X1.508000*%
%TD*%
%TA.AperFunction,ComponentPad*%
%ADD17RoundRect,0.300000X-0.700000X-0.700000X0.700000X-0.700000X0.700000X0.700000X-0.700000X0.700000X0*%
%TD*%
%TA.AperFunction,ViaPad*%
%ADD18C,2.000000*%
%TD*%
%TA.AperFunction,Conductor*%
%ADD19C,1.000000*%
%TD*%
G04 APERTURE END LIST*
D10*
%TO.P,SW3,1,1_1*%
%TO.N,Net-(D3-A)*%
X191415000Y-56960000D03*
%TO.P,SW3,2,2_2*%
%TO.N,C3*%
X204342000Y-54420000D03*
%TD*%
D11*
%TO.P,D19,1,K_1*%
%TO.N,R5*%
X188000000Y-147500000D03*
D12*
%TO.P,D19,2,A_2*%
%TO.N,Net-(D19-A)*%
X188000000Y-134800000D03*
%TD*%
D11*
%TO.P,D6,1,K_1*%
%TO.N,R2*%
X169000000Y-91850000D03*
D12*
%TO.P,D6,2,A_2*%
%TO.N,Net-(D6-A)*%
X169000000Y-79150000D03*
%TD*%
D13*
%TO.P,J1,1,Pin_1_1*%
%TO.N,Net-(J1-Pin_1)*%
X225500000Y-31840000D03*
D14*
%TO.P,J1,2,Pin_2_2*%
%TO.N,Net-(J1-Pin_2)*%
X225500000Y-34380000D03*
%TO.P,J1,3,Pin_3_3*%
%TO.N,Net-(J1-Pin_3)*%
X225500000Y-36920000D03*
%TO.P,J1,4,Pin_4_4*%
%TO.N,Net-(J1-Pin_4)*%
X225500000Y-39460000D03*
%TO.P,J1,5,Pin_5_5*%
%TO.N,Net-(J1-Pin_5)*%
X225500000Y-42000000D03*
%TO.P,J1,6,Pin_6_6*%
%TO.N,Net-(J1-Pin_6)*%
X225500000Y-44540000D03*
%TD*%
D10*
%TO.P,SW6,1,1_1*%
%TO.N,Net-(D6-A)*%
X171915000Y-76460000D03*
%TO.P,SW6,2,2_2*%
%TO.N,C2*%
X184842000Y-73920000D03*
%TD*%
%TO.P,SW1,1,1_1*%
%TO.N,Net-(D1-A)*%
X152415000Y-56960000D03*
%TO.P,SW1,2,2_2*%
%TO.N,C1*%
X165342000Y-54420000D03*
%TD*%
D11*
%TO.P,D2,1,K_1*%
%TO.N,R1*%
X169000000Y-72350000D03*
D12*
%TO.P,D2,2,A_2*%
%TO.N,Net-(D2-A)*%
X169000000Y-59650000D03*
%TD*%
D11*
%TO.P,D11,1,K_1*%
%TO.N,R3*%
X188500000Y-111350000D03*
D12*
%TO.P,D11,2,A_2*%
%TO.N,Net-(D11-A)*%
X188500000Y-98650000D03*
%TD*%
D10*
%TO.P,SW14,1,1_1*%
%TO.N,Net-(D14-A)*%
X171915000Y-115460000D03*
%TO.P,SW14,2,2_2*%
%TO.N,C2*%
X184842000Y-112920000D03*
%TD*%
%TO.P,SW13,1,1_1*%
%TO.N,Net-(D13-A)*%
X152415000Y-115460000D03*
%TO.P,SW13,2,2_2*%
%TO.N,C1*%
X165342000Y-112920000D03*
%TD*%
D11*
%TO.P,D16,1,K_1*%
%TO.N,R4*%
X208500000Y-141350000D03*
D12*
%TO.P,D16,2,A_2*%
%TO.N,Net-(D16-A)*%
X208500000Y-128650000D03*
%TD*%
D15*
%TO.P,U1,1,GPIO48_1*%
%TO.N,R5*%
X201180000Y-27170000D03*
%TO.P,U1,2,GPIO47_2*%
%TO.N,R4*%
X201180000Y-29710000D03*
%TO.P,U1,3,GPIO46_3*%
%TO.N,R3*%
X201180000Y-32250000D03*
%TO.P,U1,3V3,3V3_3V3*%
%TO.N,unconnected-(U1-Pad3V3)*%
X216420000Y-27170000D03*
%TO.P,U1,4,GPIO45_4*%
%TO.N,R2*%
X201180000Y-34790000D03*
%TO.P,U1,5,GPIO42_5*%
%TO.N,R1*%
X201180000Y-37330000D03*
D16*
%TO.P,U1,5V,5V_5V*%
%TO.N,Net-(J1-Pin_1)*%
X216420000Y-22090000D03*
D15*
%TO.P,U1,6,GPIO41_6*%
%TO.N,C1*%
X201180000Y-39870000D03*
%TO.P,U1,7,GPIO40_7*%
%TO.N,C2*%
X201180000Y-42410000D03*
%TO.P,U1,8,GPIO8_8*%
%TO.N,C3*%
X216420000Y-42410000D03*
%TO.P,U1,9,GPIO9_9*%
%TO.N,C4*%
X216420000Y-39870000D03*
%TO.P,U1,10,GPIO10_10*%
%TO.N,Net-(J1-Pin_6)*%
X216420000Y-37330000D03*
%TO.P,U1,11,GPIO11_11*%
%TO.N,Net-(J1-Pin_5)*%
X216420000Y-34790000D03*
%TO.P,U1,12,GPIO12_12*%
%TO.N,Net-(J1-Pin_4)*%
X216420000Y-32250000D03*
%TO.P,U1,13,GPIO13_13*%
%TO.N,Net-(J1-Pin_3)*%
X216420000Y-29750000D03*
D17*
%TO.P,U1,B+,B+_B+*%
%TO.N,unconnected-(U1-PadB+)*%
X211100000Y-22050000D03*
%TO.P,U1,B-,B-_B-*%
%TO.N,unconnected-(U1-PadB-)*%
X206000000Y-22000000D03*
D15*
%TO.P,U1,GND,GND_GND*%
%TO.N,Net-(J1-Pin_2)*%
X216420000Y-24630000D03*
%TO.P,U1,RX,RX_RX*%
%TO.N,unconnected-(U1-PadRX)*%
X201180000Y-24630000D03*
%TO.P,U1,TX,TX_TX*%
%TO.N,unconnected-(U1-PadTX)*%
X201180000Y-22090000D03*
%TD*%
D10*
%TO.P,SW10,1,1_1*%
%TO.N,Net-(D10-A)*%
X171915000Y-95960000D03*
%TO.P,SW10,2,2_2*%
%TO.N,C2*%
X184842000Y-93420000D03*
%TD*%
%TO.P,SW15,1,1_1*%
%TO.N,Net-(D15-A)*%
X191415000Y-115460000D03*
%TO.P,SW15,2,2_2*%
%TO.N,C3*%
X204342000Y-112920000D03*
%TD*%
%TO.P,SW7,1,1_1*%
%TO.N,Net-(D7-A)*%
X191415000Y-76460000D03*
%TO.P,SW7,2,2_2*%
%TO.N,C3*%
X204342000Y-73920000D03*
%TD*%
D11*
%TO.P,D14,1,K_1*%
%TO.N,R4*%
X169000000Y-128350000D03*
D12*
%TO.P,D14,2,A_2*%
%TO.N,Net-(D14-A)*%
X169000000Y-115650000D03*
%TD*%
D11*
%TO.P,D18,1,K_1*%
%TO.N,R5*%
X158500000Y-147850000D03*
D12*
%TO.P,D18,2,A_2*%
%TO.N,Net-(D18-A)*%
X158500000Y-135150000D03*
%TD*%
D10*
%TO.P,SW16,1,1_1*%
%TO.N,Net-(D16-A)*%
X210915000Y-124960000D03*
%TO.P,SW16,2,2_2*%
%TO.N,C4*%
X223842000Y-122420000D03*
%TD*%
D11*
%TO.P,D13,1,K_1*%
%TO.N,R4*%
X149500000Y-130850000D03*
D12*
%TO.P,D13,2,A_2*%
%TO.N,Net-(D13-A)*%
X149500000Y-118150000D03*
%TD*%
D10*
%TO.P,SW9,1,1_1*%
%TO.N,Net-(D9-A)*%
X152415000Y-95960000D03*
%TO.P,SW9,2,2_2*%
%TO.N,C1*%
X165342000Y-93420000D03*
%TD*%
D11*
%TO.P,D7,1,K_1*%
%TO.N,R2*%
X188500000Y-91850000D03*
D12*
%TO.P,D7,2,A_2*%
%TO.N,Net-(D7-A)*%
X188500000Y-79150000D03*
%TD*%
D11*
%TO.P,D15,1,K_1*%
%TO.N,R4*%
X188500000Y-130850000D03*
D12*
%TO.P,D15,2,A_2*%
%TO.N,Net-(D15-A)*%
X188500000Y-118150000D03*
%TD*%
D11*
%TO.P,D10,1,K_1*%
%TO.N,R3*%
X169000000Y-111350000D03*
D12*
%TO.P,D10,2,A_2*%
%TO.N,Net-(D10-A)*%
X169000000Y-98650000D03*
%TD*%
D10*
%TO.P,SW18,1,1_1*%
%TO.N,Net-(D18-A)*%
X161915000Y-134960000D03*
%TO.P,SW18,2,2_2*%
%TO.N,C2*%
X174842000Y-132420000D03*
%TD*%
D11*
%TO.P,D9,1,K_1*%
%TO.N,R3*%
X149500000Y-111350000D03*
D12*
%TO.P,D9,2,A_2*%
%TO.N,Net-(D9-A)*%
X149500000Y-98650000D03*
%TD*%
D10*
%TO.P,SW5,1,1_1*%
%TO.N,Net-(D5-A)*%
X152415000Y-76460000D03*
%TO.P,SW5,2,2_2*%
%TO.N,C1*%
X165342000Y-73920000D03*
%TD*%
%TO.P,SW2,1,1_1*%
%TO.N,Net-(D2-A)*%
X171915000Y-56960000D03*
%TO.P,SW2,2,2_2*%
%TO.N,C2*%
X184842000Y-54420000D03*
%TD*%
D11*
%TO.P,D3,1,K_1*%
%TO.N,R1*%
X188500000Y-72350000D03*
D12*
%TO.P,D3,2,A_2*%
%TO.N,Net-(D3-A)*%
X188500000Y-59650000D03*
%TD*%
D10*
%TO.P,SW4,1,1_1*%
%TO.N,Net-(D4-A)*%
X210915000Y-56960000D03*
%TO.P,SW4,2,2_2*%
%TO.N,C4*%
X223842000Y-54420000D03*
%TD*%
%TO.P,SW11,1,1_1*%
%TO.N,Net-(D11-A)*%
X191415000Y-95960000D03*
%TO.P,SW11,2,2_2*%
%TO.N,C3*%
X204342000Y-93420000D03*
%TD*%
%TO.P,SW19,1,1_1*%
%TO.N,Net-(D19-A)*%
X191335000Y-134960000D03*
%TO.P,SW19,2,2_2*%
%TO.N,C3*%
X204262000Y-132420000D03*
%TD*%
D11*
%TO.P,D5,1,K_1*%
%TO.N,R2*%
X149500000Y-91850000D03*
D12*
%TO.P,D5,2,A_2*%
%TO.N,Net-(D5-A)*%
X149500000Y-79150000D03*
%TD*%
D10*
%TO.P,SW8,1,1_1*%
%TO.N,Net-(D8-A)*%
X210915000Y-85960000D03*
%TO.P,SW8,2,2_2*%
%TO.N,C4*%
X223842000Y-83420000D03*
%TD*%
D11*
%TO.P,D8,1,K_1*%
%TO.N,R2*%
X208500000Y-101350000D03*
D12*
%TO.P,D8,2,A_2*%
%TO.N,Net-(D8-A)*%
X208500000Y-88650000D03*
%TD*%
D11*
%TO.P,D4,1,K_1*%
%TO.N,R1*%
X208000000Y-72350000D03*
D12*
%TO.P,D4,2,A_2*%
%TO.N,Net-(D4-A)*%
X208000000Y-59650000D03*
%TD*%
D11*
%TO.P,D1,1,K_1*%
%TO.N,R1*%
X149500000Y-72350000D03*
D12*
%TO.P,D1,2,A_2*%
%TO.N,Net-(D1-A)*%
X149500000Y-59650000D03*
%TD*%
D18*
%TO.N,R5*%
X158500000Y-27000000D03*
%TO.N,R2*%
X172000000Y-35000000D03*
%TO.N,R1*%
X176500000Y-37500000D03*
%TO.N,R3*%
X167500000Y-32500000D03*
%TO.N,R4*%
X163000000Y-30000000D03*
%TD*%
%TO.N,Net-(D3-A)*%
D19*
X191415000Y-56960000D02*
X191190000Y-56960000D01*
X191190000Y-56960000D02*
X188500000Y-59650000D01*
%TO.N,C3*%
X205205000Y-112057000D02*
X205205000Y-94283000D01*
X205205000Y-94283000D02*
X204342000Y-93420000D01*
X204262000Y-132420000D02*
X205205000Y-131477000D01*
X204342000Y-73920000D02*
X205205000Y-73057000D01*
X216420000Y-42580000D02*
X216420000Y-42410000D01*
X204580000Y-54420000D02*
X216420000Y-42580000D01*
X204342000Y-93420000D02*
X205205000Y-92557000D01*
X205205000Y-73057000D02*
X205205000Y-55283000D01*
X204342000Y-54420000D02*
X204580000Y-54420000D01*
X205205000Y-113783000D02*
X204342000Y-112920000D01*
X204342000Y-112920000D02*
X205205000Y-112057000D01*
X205205000Y-55283000D02*
X204342000Y-54420000D01*
X205205000Y-131477000D02*
X205205000Y-113783000D01*
X205205000Y-92557000D02*
X205205000Y-74783000D01*
X205205000Y-74783000D02*
X204342000Y-73920000D01*
%TO.N,R5*%
X201010000Y-27000000D02*
X201180000Y-27170000D01*
X158500000Y-27000000D02*
X201010000Y-27000000D01*
%TO.N,Net-(D19-A)*%
X191335000Y-134960000D02*
X188160000Y-134960000D01*
X188160000Y-134960000D02*
X188000000Y-134800000D01*
%TO.N,R2*%
X172000000Y-35000000D02*
X200970000Y-35000000D01*
X200970000Y-35000000D02*
X201180000Y-34790000D01*
%TO.N,Net-(D6-A)*%
X171915000Y-76460000D02*
X171690000Y-76460000D01*
X171690000Y-76460000D02*
X169000000Y-79150000D01*
%TO.N,Net-(J1-Pin_1)*%
X217590000Y-22090000D02*
X225500000Y-30000000D01*
X216420000Y-22090000D02*
X217590000Y-22090000D01*
X225500000Y-30000000D02*
X225500000Y-31840000D01*
%TO.N,Net-(J1-Pin_2)*%
X217130000Y-24630000D02*
X223000000Y-30500000D01*
X216420000Y-24630000D02*
X217130000Y-24630000D01*
X223000000Y-33000000D02*
X224380000Y-34380000D01*
X224380000Y-34380000D02*
X225500000Y-34380000D01*
X223000000Y-30500000D02*
X223000000Y-33000000D01*
%TO.N,Net-(J1-Pin_3)*%
X221200000Y-33745584D02*
X223634416Y-36180000D01*
X221200000Y-31245584D02*
X221200000Y-33745584D01*
X224397208Y-36920000D02*
X225500000Y-36920000D01*
X219704416Y-29750000D02*
X221200000Y-31245584D01*
X223634416Y-36180000D02*
X223657208Y-36180000D01*
X216420000Y-29750000D02*
X219704416Y-29750000D01*
X223657208Y-36180000D02*
X224397208Y-36920000D01*
%TO.N,Net-(J1-Pin_4)*%
X219400000Y-33400000D02*
X219400000Y-34491168D01*
X216420000Y-32250000D02*
X218250000Y-32250000D01*
X219400000Y-34491168D02*
X224368832Y-39460000D01*
X224368832Y-39460000D02*
X225500000Y-39460000D01*
X218250000Y-32250000D02*
X219400000Y-33400000D01*
%TO.N,Net-(J1-Pin_5)*%
X224110000Y-41610000D02*
X225500000Y-41610000D01*
X223760000Y-41260000D02*
X224110000Y-41610000D01*
X216420000Y-34790000D02*
X216866752Y-35236752D01*
X225500000Y-41610000D02*
X225500000Y-42000000D01*
X223623248Y-41260000D02*
X223760000Y-41260000D01*
X217600000Y-35236752D02*
X223623248Y-41260000D01*
X216866752Y-35236752D02*
X217600000Y-35236752D01*
%TO.N,Net-(J1-Pin_6)*%
X217147664Y-37330000D02*
X224357664Y-44540000D01*
X216420000Y-37330000D02*
X217147664Y-37330000D01*
X224357664Y-44540000D02*
X225500000Y-44540000D01*
%TO.N,C2*%
X185705000Y-121557000D02*
X174842000Y-132420000D01*
X184842000Y-112920000D02*
X185705000Y-113783000D01*
X184842000Y-73920000D02*
X185705000Y-74783000D01*
X185705000Y-73057000D02*
X184842000Y-73920000D01*
X201090000Y-42500000D02*
X201180000Y-42410000D01*
X196500000Y-42500000D02*
X201090000Y-42500000D01*
X184842000Y-54158000D02*
X196500000Y-42500000D01*
X185705000Y-74783000D02*
X185705000Y-92557000D01*
X185705000Y-113783000D02*
X185705000Y-121557000D01*
X184842000Y-54420000D02*
X185705000Y-55283000D01*
X184842000Y-93420000D02*
X185705000Y-94283000D01*
X185705000Y-112057000D02*
X184842000Y-112920000D01*
X184842000Y-54420000D02*
X184842000Y-54158000D01*
X185705000Y-55283000D02*
X185705000Y-73057000D01*
X185705000Y-94283000D02*
X185705000Y-112057000D01*
X185705000Y-92557000D02*
X184842000Y-93420000D01*
%TO.N,Net-(D1-A)*%
X152415000Y-56960000D02*
X152190000Y-56960000D01*
X152190000Y-56960000D02*
X149500000Y-59650000D01*
%TO.N,C1*%
X165342000Y-54420000D02*
X179762000Y-40000000D01*
X165342000Y-73920000D02*
X166205000Y-74783000D01*
X165342000Y-93420000D02*
X166205000Y-94283000D01*
X166205000Y-55283000D02*
X166205000Y-73057000D01*
X201050000Y-40000000D02*
X201180000Y-39870000D01*
X179762000Y-40000000D02*
X201050000Y-40000000D01*
X166205000Y-74783000D02*
X166205000Y-92557000D01*
X166205000Y-112057000D02*
X165342000Y-112920000D01*
X166205000Y-92557000D02*
X165342000Y-93420000D01*
X165342000Y-54420000D02*
X166205000Y-55283000D01*
X166205000Y-94283000D02*
X166205000Y-112057000D01*
X166205000Y-73057000D02*
X165342000Y-73920000D01*
%TO.N,R1*%
X176500000Y-37500000D02*
X201010000Y-37500000D01*
X201010000Y-37500000D02*
X201180000Y-37330000D01*
%TO.N,Net-(D2-A)*%
X171690000Y-56960000D02*
X169000000Y-59650000D01*
X171915000Y-56960000D02*
X171690000Y-56960000D01*
%TO.N,R3*%
X200930000Y-32500000D02*
X201180000Y-32250000D01*
X167500000Y-32500000D02*
X200930000Y-32500000D01*
%TO.N,Net-(D11-A)*%
X191190000Y-95960000D02*
X188500000Y-98650000D01*
X191415000Y-95960000D02*
X191190000Y-95960000D01*
%TO.N,Net-(D14-A)*%
X169190000Y-115460000D02*
X169000000Y-115650000D01*
X171915000Y-115460000D02*
X169190000Y-115460000D01*
%TO.N,Net-(D13-A)*%
X152415000Y-115460000D02*
X152190000Y-115460000D01*
X152190000Y-115460000D02*
X149500000Y-118150000D01*
%TO.N,R4*%
X200890000Y-30000000D02*
X201180000Y-29710000D01*
X163000000Y-30000000D02*
X200890000Y-30000000D01*
%TO.N,Net-(D16-A)*%
X210915000Y-126235000D02*
X208500000Y-128650000D01*
X210915000Y-124960000D02*
X210915000Y-126235000D01*
%TO.N,C4*%
X224705000Y-84283000D02*
X223842000Y-83420000D01*
X224705000Y-82557000D02*
X224705000Y-55283000D01*
X223842000Y-83420000D02*
X224705000Y-82557000D01*
X224500000Y-53762000D02*
X224500000Y-47500000D01*
X223842000Y-122420000D02*
X224705000Y-121557000D01*
X224705000Y-55283000D02*
X223842000Y-54420000D01*
X224500000Y-47500000D02*
X216870000Y-39870000D01*
X224705000Y-121557000D02*
X224705000Y-84283000D01*
X223842000Y-54420000D02*
X224500000Y-53762000D01*
X216870000Y-39870000D02*
X216420000Y-39870000D01*
%TO.N,Net-(D10-A)*%
X171690000Y-95960000D02*
X169000000Y-98650000D01*
X171915000Y-95960000D02*
X171690000Y-95960000D01*
%TO.N,Net-(D15-A)*%
X191415000Y-115460000D02*
X191190000Y-115460000D01*
X191190000Y-115460000D02*
X188500000Y-118150000D01*
%TO.N,Net-(D7-A)*%
X191415000Y-76460000D02*
X191190000Y-76460000D01*
X191190000Y-76460000D02*
X188500000Y-79150000D01*
%TO.N,Net-(D18-A)*%
X158690000Y-134960000D02*
X158500000Y-135150000D01*
X161915000Y-134960000D02*
X158690000Y-134960000D01*
%TO.N,Net-(D9-A)*%
X152415000Y-95960000D02*
X152190000Y-95960000D01*
X152190000Y-95960000D02*
X149500000Y-98650000D01*
%TO.N,Net-(D5-A)*%
X152190000Y-76460000D02*
X149500000Y-79150000D01*
X152415000Y-76460000D02*
X152190000Y-76460000D01*
%TO.N,Net-(D4-A)*%
X210915000Y-56960000D02*
X210690000Y-56960000D01*
X210690000Y-56960000D02*
X208000000Y-59650000D01*
%TO.N,Net-(D8-A)*%
X210915000Y-85960000D02*
X210915000Y-86235000D01*
X210915000Y-86235000D02*
X208500000Y-88650000D01*
%TD*%
M02*
