M48
; DRILL file KiCad 10.0.5 date 2026-09-08T10:43:29
; FORMAT={-:-/ absolute / metric / decimal}
; #@! TF.CreationDate,2026-09-08T10:43:29+05:30
; #@! TF.GenerationSoftware,Kicad,Pcbnew,10.0.5
; #@! TF.FileFunction,NonPlated,1,2,NPTH
FMAT,2
METRIC
; #@! TA.AperFunction,NonPlated,NPTH,ComponentDrill
T1C1.750
; #@! TA.AperFunction,NonPlated,NPTH,ComponentDrill
T2C3.050
; #@! TA.AperFunction,NonPlated,NPTH,ComponentDrill
T3C4.000
%
G90
G05
T1
X154.42Y-59.5
X154.42Y-79.0
X154.42Y-98.5
X154.42Y-118.0
X163.92Y-137.5
X164.58Y-59.5
X164.58Y-79.0
X164.58Y-98.5
X164.58Y-118.0
X173.92Y-59.5
X173.92Y-79.0
X173.92Y-98.5
X173.92Y-118.0
X174.08Y-137.5
X184.08Y-59.5
X184.08Y-79.0
X184.08Y-98.5
X184.08Y-118.0
X193.34Y-137.5
X193.42Y-59.5
X193.42Y-79.0
X193.42Y-98.5
X193.42Y-118.0
X203.5Y-137.5
X203.58Y-59.5
X203.58Y-79.0
X203.58Y-98.5
X203.58Y-118.0
X212.92Y-59.5
X212.92Y-88.5
X212.92Y-127.5
X223.08Y-59.5
X223.08Y-88.5
X223.08Y-127.5
T2
X155.69Y-56.96
X155.69Y-76.46
X155.69Y-95.96
X155.69Y-115.46
X162.04Y-54.42
X162.04Y-73.92
X162.04Y-93.42
X162.04Y-112.92
X165.19Y-134.96
X171.54Y-132.42
X175.19Y-56.96
X175.19Y-76.46
X175.19Y-95.96
X175.19Y-115.46
X181.54Y-54.42
X181.54Y-73.92
X181.54Y-93.42
X181.54Y-112.92
X194.61Y-134.96
X194.69Y-56.96
X194.69Y-76.46
X194.69Y-95.96
X194.69Y-115.46
X200.96Y-132.42
X201.04Y-54.42
X201.04Y-73.92
X201.04Y-93.42
X201.04Y-112.92
X214.19Y-56.96
X214.19Y-85.96
X214.19Y-124.96
X220.54Y-54.42
X220.54Y-83.42
X220.54Y-122.42
T3
X159.5Y-59.5
X159.5Y-79.0
X159.5Y-98.5
X159.5Y-118.0
X169.0Y-137.5
X179.0Y-59.5
X179.0Y-79.0
X179.0Y-98.5
X179.0Y-118.0
X198.42Y-137.5
X198.5Y-59.5
X198.5Y-79.0
X198.5Y-98.5
X198.5Y-118.0
X218.0Y-59.5
X218.0Y-88.5
X218.0Y-127.5
M30
