M48
; DRILL file KiCad 10.0.5 date 2026-09-08T10:43:29
; FORMAT={-:-/ absolute / metric / decimal}
; #@! TF.CreationDate,2026-09-08T10:43:29+05:30
; #@! TF.GenerationSoftware,Kicad,Pcbnew,10.0.5
; #@! TF.FileFunction,Plated,1,2,PTH
FMAT,2
METRIC
; #@! TA.AperFunction,Plated,PTH,ViaDrill
T1C1.000
; #@! TA.AperFunction,Plated,PTH,ComponentDrill
T2C1.000
; #@! TA.AperFunction,Plated,PTH,ComponentDrill
T3C1.400
%
G90
G05
T1
X158.5Y-27.0
X163.0Y-30.0
X167.5Y-32.5
X172.0Y-35.0
X176.5Y-37.5
T2
X201.18Y-22.09
X201.18Y-24.63
X201.18Y-27.17
X201.18Y-29.71
X201.18Y-32.25
X201.18Y-34.79
X201.18Y-37.33
X201.18Y-39.87
X201.18Y-42.41
X206.0Y-22.0
X211.1Y-22.05
X216.42Y-22.09
X216.42Y-24.63
X216.42Y-27.17
X216.42Y-29.75
X216.42Y-32.25
X216.42Y-34.79
X216.42Y-37.33
X216.42Y-39.87
X216.42Y-42.41
X225.5Y-31.84
X225.5Y-34.38
X225.5Y-36.92
X225.5Y-39.46
X225.5Y-42.0
X225.5Y-44.54
T3
X149.5Y-59.65
X149.5Y-72.35
X149.5Y-79.15
X149.5Y-91.85
X149.5Y-98.65
X149.5Y-111.35
X149.5Y-118.15
X149.5Y-130.85
X158.5Y-135.15
X158.5Y-147.85
X169.0Y-59.65
X169.0Y-72.35
X169.0Y-79.15
X169.0Y-91.85
X169.0Y-98.65
X169.0Y-111.35
X169.0Y-115.65
X169.0Y-128.35
X188.0Y-134.8
X188.0Y-147.5
X188.5Y-59.65
X188.5Y-72.35
X188.5Y-79.15
X188.5Y-91.85
X188.5Y-98.65
X188.5Y-111.35
X188.5Y-118.15
X188.5Y-130.85
X208.0Y-59.65
X208.0Y-72.35
X208.5Y-88.65
X208.5Y-101.35
X208.5Y-128.65
X208.5Y-141.35
M30
